<?xml version="1.0" encoding="UTF-8"?>
<svg xmlns="http://www.w3.org/2000/svg" xmlns:xlink="http://www.w3.org/1999/xlink" width="16px" height="16px" viewBox="0 0 16 16" version="1.1">
<g id="surface33618">
<path style=" stroke:none;fill-rule:nonzero;fill:rgb(20.392157%,59.607843%,85.882353%);fill-opacity:1;" d="M 12.164062 1.28125 C 12.023438 1.277344 11.898438 1.367188 11.855469 1.5 L 10.265625 6.398438 L 5.734375 6.398438 L 4.144531 1.5 C 4.101562 1.371094 3.984375 1.285156 3.847656 1.28125 C 3.710938 1.277344 3.589844 1.359375 3.539062 1.488281 L 1.621094 6.605469 C 1.621094 6.605469 1.621094 6.605469 1.621094 6.609375 L 0.660156 9.167969 C 0.609375 9.300781 0.65625 9.453125 0.773438 9.539062 L 7.808594 14.65625 L 7.8125 14.660156 C 7.816406 14.664062 7.820312 14.664062 7.824219 14.667969 C 7.828125 14.671875 7.832031 14.671875 7.839844 14.675781 C 7.839844 14.675781 7.84375 14.679688 7.84375 14.679688 C 7.84375 14.679688 7.847656 14.679688 7.847656 14.679688 C 7.851562 14.683594 7.851562 14.683594 7.855469 14.683594 C 7.859375 14.6875 7.867188 14.691406 7.875 14.695312 C 7.882812 14.699219 7.890625 14.699219 7.894531 14.703125 C 7.898438 14.703125 7.898438 14.703125 7.898438 14.703125 C 7.902344 14.703125 7.910156 14.707031 7.914062 14.707031 C 7.917969 14.707031 7.921875 14.710938 7.921875 14.710938 C 7.929688 14.710938 7.9375 14.714844 7.941406 14.714844 C 7.953125 14.714844 7.957031 14.71875 7.96875 14.71875 C 7.980469 14.71875 7.992188 14.71875 8.007812 14.71875 C 8.019531 14.71875 8.03125 14.71875 8.042969 14.714844 C 8.046875 14.714844 8.050781 14.714844 8.054688 14.714844 C 8.054688 14.714844 8.054688 14.714844 8.058594 14.714844 C 8.058594 14.714844 8.0625 14.714844 8.0625 14.714844 C 8.066406 14.714844 8.066406 14.710938 8.070312 14.710938 C 8.070312 14.710938 8.074219 14.710938 8.078125 14.710938 C 8.082031 14.707031 8.085938 14.707031 8.089844 14.707031 C 8.09375 14.707031 8.09375 14.707031 8.09375 14.703125 C 8.097656 14.703125 8.097656 14.703125 8.097656 14.703125 C 8.105469 14.703125 8.109375 14.699219 8.113281 14.699219 C 8.121094 14.695312 8.125 14.695312 8.132812 14.691406 C 8.136719 14.691406 8.136719 14.691406 8.136719 14.6875 C 8.140625 14.6875 8.140625 14.6875 8.144531 14.683594 C 8.152344 14.679688 8.160156 14.675781 8.164062 14.671875 C 8.167969 14.671875 8.167969 14.671875 8.171875 14.671875 C 8.171875 14.671875 8.171875 14.667969 8.171875 14.667969 C 8.179688 14.664062 8.183594 14.664062 8.1875 14.660156 L 8.191406 14.65625 L 15.230469 9.539062 C 15.34375 9.453125 15.390625 9.300781 15.339844 9.167969 L 14.382812 6.617188 C 14.382812 6.613281 14.378906 6.609375 14.378906 6.609375 L 12.460938 1.488281 C 12.414062 1.363281 12.296875 1.28125 12.164062 1.28125 Z M 2.582031 7.039062 L 5.269531 7.039062 L 7.144531 12.804688 Z M 10.730469 7.039062 L 13.417969 7.039062 L 8.855469 12.804688 Z M 2.019531 7.363281 L 6.300781 12.769531 L 1.34375 9.164062 Z M 13.980469 7.363281 L 14.65625 9.164062 L 9.699219 12.769531 Z M 13.980469 7.363281 "/>
<path style=" stroke:none;fill-rule:nonzero;fill:rgb(0%,0%,0%);fill-opacity:1;" d="M 0.929688 0 C 0.417969 0 0 0.417969 0 0.929688 C 0 1.441406 0.417969 1.859375 0.929688 1.859375 C 1.441406 1.859375 1.859375 1.441406 1.859375 0.929688 C 1.859375 0.417969 1.441406 0 0.929688 0 Z M 1.386719 1.023438 L 1.023438 1.023438 L 1.023438 1.386719 C 1.023438 1.441406 0.984375 1.480469 0.929688 1.480469 C 0.875 1.480469 0.835938 1.441406 0.835938 1.386719 L 0.835938 1.023438 L 0.472656 1.023438 C 0.417969 1.023438 0.382812 0.984375 0.382812 0.929688 C 0.382812 0.875 0.417969 0.835938 0.472656 0.835938 L 0.835938 0.835938 L 0.835938 0.464844 C 0.835938 0.410156 0.875 0.371094 0.929688 0.371094 C 0.984375 0.371094 1.023438 0.410156 1.023438 0.464844 L 1.023438 0.835938 L 1.386719 0.835938 C 1.441406 0.835938 1.480469 0.875 1.480469 0.929688 C 1.480469 0.984375 1.441406 1.023438 1.386719 1.023438 Z M 1.386719 1.023438 "/>
<path style=" stroke:none;fill-rule:nonzero;fill:rgb(0%,0%,0%);fill-opacity:1;" d="M 9.226562 6.414062 L 9.226562 6.757812 L 8.207031 6.757812 L 8.207031 9.585938 L 7.789062 9.585938 L 7.789062 6.757812 L 6.773438 6.757812 L 6.773438 6.414062 Z M 9.226562 6.414062 "/>
</g>
</svg>
